<svg width="202" height="25" viewBox="0 0 202 25" fill="none" xmlns="http://www.w3.org/2000/svg">
<path d="M0.539746 0.16563H5.40375L12.5717 15.2696L19.7077 0.16563H24.5717L12.5717 24.1976L0.539746 0.16563ZM33.4237 0.16563L45.4557 24.1976H40.5917L33.4237 9.09363L26.2877 24.1976H21.4237L33.4237 0.16563ZM66.4602 0.19763V15.3016C66.4602 15.515 66.4389 15.8883 66.3962 16.4216C66.3749 16.9336 66.2789 17.5203 66.1082 18.1816C65.9376 18.843 65.6602 19.5363 65.2762 20.2616C64.9136 20.9656 64.3802 21.6163 63.6762 22.2136C62.9936 22.7896 62.1189 23.2696 61.0522 23.6536C60.0069 24.0163 58.7056 24.1976 57.1482 24.1976C55.6762 24.1976 54.4282 24.0163 53.4042 23.6536C52.3802 23.2696 51.5376 22.7896 50.8762 22.2136C50.2149 21.6163 49.7029 20.9656 49.3402 20.2616C48.9989 19.5363 48.7429 18.843 48.5722 18.1816C48.4229 17.5203 48.3269 16.9336 48.2842 16.4216C48.2629 15.8883 48.2522 15.515 48.2522 15.3016V0.19763H52.2522V15.3016C52.2522 15.5363 52.2736 15.9416 52.3162 16.5176C52.3802 17.0936 52.5616 17.691 52.8602 18.3096C53.1589 18.907 53.6389 19.4403 54.3002 19.9096C54.9829 20.379 55.9322 20.6136 57.1482 20.6136C58.4709 20.6136 59.4842 20.379 60.1882 19.9096C60.9136 19.4403 61.4362 18.907 61.7562 18.3096C62.0976 17.691 62.2896 17.0936 62.3322 16.5176C62.3962 15.9416 62.4282 15.5363 62.4282 15.3016V0.19763H66.4602ZM89.038 20.2936V24.2936H72.974V0.229631H76.974V20.2936H89.038ZM106.259 0.16563V4.16563H98.2592V24.1976H94.2272V0.16563H106.259ZM133.194 0.229631C134.432 0.293631 135.541 0.58163 136.522 1.09363C136.928 1.30696 137.333 1.5843 137.738 1.92563C138.144 2.24563 138.496 2.65096 138.794 3.14163C139.114 3.6323 139.37 4.2083 139.562 4.86963C139.754 5.53096 139.85 6.29896 139.85 7.17363C139.85 8.06963 139.754 8.8483 139.562 9.50963C139.37 10.171 139.114 10.7576 138.794 11.2696C138.496 11.7603 138.144 12.1763 137.738 12.5176C137.333 12.859 136.928 13.1363 136.522 13.3496C135.541 13.883 134.432 14.1816 133.194 14.2456H125.13V24.1976H121.13V10.2136H132.906C132.928 10.2136 133.098 10.203 133.418 10.1816C133.738 10.139 134.069 10.0216 134.41 9.82963C134.773 9.63763 135.104 9.33896 135.402 8.93363C135.701 8.5283 135.85 7.94163 135.85 7.17363C135.85 6.42696 135.69 5.86163 135.37 5.47763C135.072 5.0723 134.741 4.77363 134.378 4.58163C133.952 4.34696 133.461 4.21896 132.906 4.19763H121.13V0.19763H133.194V0.229631ZM150.58 0.16563L162.612 24.1976H157.748L150.58 9.09363L143.444 24.1976H138.58L150.58 0.16563ZM174.618 9.98963C174.789 10.011 175.077 10.0536 175.482 10.1176C175.909 10.1816 176.378 10.3096 176.89 10.5016C177.424 10.6723 177.968 10.907 178.522 11.2056C179.077 11.5043 179.578 11.9203 180.026 12.4536C180.474 12.9656 180.848 13.595 181.146 14.3416C181.445 15.0883 181.594 15.9843 181.594 17.0296C181.594 17.0723 181.573 17.2856 181.53 17.6696C181.509 18.0323 181.413 18.4803 181.242 19.0136C181.072 19.547 180.816 20.1123 180.474 20.7096C180.133 21.307 179.642 21.8723 179.002 22.4056C178.362 22.9176 177.552 23.3443 176.57 23.6856C175.61 24.027 174.426 24.1976 173.018 24.1976C171.717 24.1976 170.48 23.931 169.306 23.3976C168.154 22.843 167.162 22.0856 166.33 21.1256L169.594 18.5976C169.594 18.619 169.669 18.715 169.818 18.8856C169.989 19.0563 170.224 19.2376 170.522 19.4296C170.842 19.6216 171.237 19.803 171.706 19.9736C172.197 20.123 172.773 20.1976 173.434 20.1976C174.65 20.1976 175.6 19.8883 176.282 19.2696C176.965 18.6296 177.306 17.883 177.306 17.0296C177.306 16.411 177.178 15.9096 176.922 15.5256C176.666 15.1203 176.314 14.8003 175.866 14.5656C175.44 14.3096 174.938 14.1176 174.362 13.9896C173.808 13.8403 173.21 13.7016 172.57 13.5736C172.4 13.5523 172.112 13.499 171.706 13.4136C171.322 13.3283 170.885 13.1896 170.394 12.9976C169.925 12.8056 169.424 12.5603 168.89 12.2616C168.378 11.9416 167.909 11.547 167.482 11.0776C167.077 10.587 166.736 10.011 166.458 9.34963C166.181 8.66696 166.042 7.86696 166.042 6.94963C166.042 6.90696 166.053 6.71496 166.074 6.37363C166.117 6.01096 166.213 5.5843 166.362 5.09363C166.533 4.58163 166.789 4.03763 167.13 3.46163C167.493 2.88563 167.994 2.36296 168.634 1.89363C169.274 1.40296 170.074 0.997631 171.034 0.677631C172.016 0.35763 173.21 0.19763 174.618 0.19763C175.92 0.19763 177.157 0.474964 178.33 1.02963C179.504 1.5843 180.506 2.34163 181.338 3.30163L178.074 5.82963C177.84 5.4243 177.509 5.11496 177.082 4.90163C176.656 4.66696 176.229 4.4963 175.802 4.38963C175.29 4.28296 174.746 4.21896 174.17 4.19763C172.954 4.19763 172.005 4.44296 171.322 4.93363C170.64 5.40296 170.298 6.07496 170.298 6.94963C170.298 7.5683 170.405 8.05896 170.618 8.42163C170.832 8.76296 171.12 9.02963 171.482 9.22163C171.866 9.41363 172.325 9.56296 172.858 9.66963C173.392 9.75496 173.978 9.86163 174.618 9.98963ZM194.649 9.98963C194.82 10.011 195.108 10.0536 195.513 10.1176C195.94 10.1816 196.409 10.3096 196.921 10.5016C197.455 10.6723 197.999 10.907 198.553 11.2056C199.108 11.5043 199.609 11.9203 200.057 12.4536C200.505 12.9656 200.879 13.595 201.177 14.3416C201.476 15.0883 201.625 15.9843 201.625 17.0296C201.625 17.0723 201.604 17.2856 201.561 17.6696C201.54 18.0323 201.444 18.4803 201.273 19.0136C201.103 19.547 200.847 20.1123 200.505 20.7096C200.164 21.307 199.673 21.8723 199.033 22.4056C198.393 22.9176 197.583 23.3443 196.601 23.6856C195.641 24.027 194.457 24.1976 193.049 24.1976C191.748 24.1976 190.511 23.931 189.337 23.3976C188.185 22.843 187.193 22.0856 186.361 21.1256L189.625 18.5976C189.625 18.619 189.7 18.715 189.849 18.8856C190.02 19.0563 190.255 19.2376 190.553 19.4296C190.873 19.6216 191.268 19.803 191.737 19.9736C192.228 20.123 192.804 20.1976 193.465 20.1976C194.681 20.1976 195.631 19.8883 196.313 19.2696C196.996 18.6296 197.337 17.883 197.337 17.0296C197.337 16.411 197.209 15.9096 196.953 15.5256C196.697 15.1203 196.345 14.8003 195.897 14.5656C195.471 14.3096 194.969 14.1176 194.393 13.9896C193.839 13.8403 193.241 13.7016 192.601 13.5736C192.431 13.5523 192.143 13.499 191.737 13.4136C191.353 13.3283 190.916 13.1896 190.425 12.9976C189.956 12.8056 189.455 12.5603 188.921 12.2616C188.409 11.9416 187.94 11.547 187.513 11.0776C187.108 10.587 186.767 10.011 186.489 9.34963C186.212 8.66696 186.073 7.86696 186.073 6.94963C186.073 6.90696 186.084 6.71496 186.105 6.37363C186.148 6.01096 186.244 5.5843 186.393 5.09363C186.564 4.58163 186.82 4.03763 187.161 3.46163C187.524 2.88563 188.025 2.36296 188.665 1.89363C189.305 1.40296 190.105 0.997631 191.065 0.677631C192.047 0.35763 193.241 0.19763 194.649 0.19763C195.951 0.19763 197.188 0.474964 198.361 1.02963C199.535 1.5843 200.537 2.34163 201.369 3.30163L198.105 5.82963C197.871 5.4243 197.54 5.11496 197.113 4.90163C196.687 4.66696 196.26 4.4963 195.833 4.38963C195.321 4.28296 194.777 4.21896 194.201 4.19763C192.985 4.19763 192.036 4.44296 191.353 4.93363C190.671 5.40296 190.329 6.07496 190.329 6.94963C190.329 7.5683 190.436 8.05896 190.649 8.42163C190.863 8.76296 191.151 9.02963 191.513 9.22163C191.897 9.41363 192.356 9.56296 192.889 9.66963C193.423 9.75496 194.009 9.86163 194.649 9.98963Z" fill="white"/>
</svg>
