<svg width="52" height="67" viewBox="0 0 52 67" fill="none" xmlns="http://www.w3.org/2000/svg">
<path d="M46.9837 5.99271L14.3052 61.8302L12.3719 65.1491L12.1571 65.5474C11.4053 66.8218 9.79416 67.2466 8.50528 66.5032L5.30994 64.6712C4.02106 63.9277 3.59144 62.3346 4.34328 61.0602L5.04143 59.8919L6.97474 56.573L39.1698 1.53209C39.9217 0.257621 41.5328 -0.1672 42.8217 0.576237L46.017 2.40828C47.3059 3.12517 47.7355 4.7448 46.9837 5.99271Z" fill="#C81E2A"/>
<path d="M30.6581 9.31163L7.27031 49.2714C6.86753 49.9352 6.11569 50.2538 5.39069 50.0945C5.36384 50.0945 5.36384 50.0945 5.33699 50.0679C4.96107 49.9352 4.6657 49.6165 4.58515 49.2448L3.43053 44.439L0.772217 33.4999C1.2824 33.2344 5.84717 32.1192 5.84717 32.1192C5.84717 32.1192 6.46476 34.9602 6.94809 36.6595C7.08235 37.1109 7.69993 37.1905 7.9416 36.7923L25.6637 6.44409C26.147 5.621 27.2211 5.32893 28.0535 5.80686L30.0405 6.94856C30.8729 7.42649 31.1414 8.48854 30.6581 9.31163Z" fill="url(#paint0_radial_1_122)"/>
<path d="M51.7365 32.1458L46.6615 33.5264L45.2921 28.0569C45.1847 27.5789 44.5403 27.4993 44.2986 27.9241L26.5228 58.2988C26.0395 59.1219 24.9654 59.414 24.133 58.936L22.3608 57.9271C21.5284 57.4492 21.2331 56.3871 21.7164 55.564L44.9967 15.7901C45.1578 15.5246 45.3727 15.3122 45.6412 15.1529C45.6412 15.1529 45.6412 15.1529 45.668 15.1529C46.3393 14.7812 47.1986 15.1795 47.3865 15.9229L48.6217 20.5428L51.7365 32.1458Z" fill="url(#paint1_radial_1_122)"/>
<defs>
<radialGradient id="paint0_radial_1_122" cx="0" cy="0" r="1" gradientUnits="userSpaceOnUse" gradientTransform="translate(15.8201 27.8695) scale(19.1698 18.9554)">
<stop offset="0.2139" stop-color="#EE5537"/>
<stop offset="1" stop-color="#BF2034"/>
</radialGradient>
<radialGradient id="paint1_radial_1_122" cx="0" cy="0" r="1" gradientUnits="userSpaceOnUse" gradientTransform="translate(36.6234 37.0957) scale(19.0666 18.8534)">
<stop offset="0.2139" stop-color="#EE5537"/>
<stop offset="1" stop-color="#BF2034"/>
</radialGradient>
</defs>
</svg>
